
      <svg data-logo="logo" xmlns="http://www.w3.org/2000/svg" viewBox="0 0 301 43">
        <g id="logogram" transform="translate(0, 1) rotate(0) "><path fill-rule="evenodd" clip-rule="evenodd" d="M9.00537 3.67782C7.57471 4.67818 6.28101 5.86093 5.15796 7.19235C9.74726 6.76628 15.5778 7.462 22.347 10.8466C29.5756 14.4608 35.3964 14.583 39.4474 13.8016C39.0798 12.6887 38.617 11.6191 38.0689 10.6023C33.4316 11.0914 27.4866 10.444 20.5582 6.97993C16.1586 4.78013 12.2804 3.87396 9.00537 3.67782ZM35.36 6.7466C31.6979 2.65495 26.376 0.0799561 20.4526 0.0799561C18.7131 0.0799561 17.0253 0.302063 15.4163 0.719436C17.5955 1.31404 19.9105 2.18394 22.347 3.40222C27.4196 5.93848 31.799 6.75511 35.36 6.7466ZM40.3135 17.708C35.4195 18.6744 28.6614 18.4759 20.5582 14.4243C12.9826 10.6365 6.95307 10.6842 2.88654 11.5879C2.67664 11.6345 2.47168 11.6835 2.27167 11.7345C1.73926 12.8924 1.31427 14.11 1.00934 15.3744C1.33502 15.2874 1.67157 15.2047 2.0188 15.1275C6.95221 14.0312 13.9227 14.0788 22.347 18.291C29.9227 22.0788 35.9522 22.0311 40.0188 21.1274C40.1581 21.0965 40.2954 21.0645 40.4304 21.0315C40.4452 20.7162 40.4526 20.3989 40.4526 20.0799C40.4526 19.2774 40.4054 18.4859 40.3135 17.708ZM39.7774 25.2522C34.9309 26.0995 28.3696 25.7743 20.5582 21.8687C12.9826 18.0809 6.95307 18.1286 2.88654 19.0323C1.98389 19.2328 1.17188 19.4771 0.455567 19.735C0.453614 19.8497 0.452637 19.9647 0.452637 20.0799C0.452637 31.1256 9.40693 40.0799 20.4526 40.0799C29.7097 40.0799 37.4979 33.7908 39.7774 25.2522Z" fill="#7F57F1"/></g>
        <g id="logotype" transform="translate(47, 1)"><path fill="#111111" d="M13.14 33L8.41 33L8.41 8.50L17.59 8.50Q20.56 8.50 22.52 9.51Q24.48 10.53 25.43 12.24Q26.37 13.96 26.37 16.16L26.37 16.16Q26.37 18.20 25.46 19.91Q24.55 21.63 22.59 22.69Q20.63 23.76 17.59 23.76L17.59 23.76L13.14 23.76L13.14 33ZM13.14 12.35L13.14 19.95L17.30 19.95Q19.58 19.95 20.58 18.91Q21.58 17.88 21.58 16.16L21.58 16.16Q21.58 14.34 20.58 13.35Q19.58 12.35 17.30 12.35L17.30 12.35L13.14 12.35ZM35.40 33.42L35.40 33.42Q32.88 33.42 30.87 32.25Q28.86 31.07 27.68 28.99Q26.51 26.91 26.51 24.21L26.51 24.21Q26.51 21.45 27.68 19.37Q28.86 17.28 30.89 16.11Q32.92 14.94 35.44 14.94L35.44 14.94Q37.99 14.94 40.00 16.11Q42.02 17.28 43.19 19.37Q44.36 21.45 44.36 24.18L44.36 24.18Q44.36 26.91 43.19 28.99Q42.02 31.07 39.98 32.25Q37.96 33.42 35.40 33.42ZM35.40 29.32L35.40 29.32Q36.59 29.32 37.52 28.77Q38.45 28.20 38.99 27.05Q39.53 25.89 39.53 24.18L39.53 24.18Q39.53 22.46 38.99 21.33Q38.45 20.19 37.52 19.61Q36.59 19.03 35.44 19.03L35.44 19.03Q34.32 19.03 33.37 19.61Q32.43 20.19 31.88 21.33Q31.34 22.46 31.34 24.18L31.34 24.18Q31.34 25.89 31.88 27.05Q32.43 28.20 33.35 28.77Q34.28 29.32 35.40 29.32ZM54.41 33.42L54.41 33.42Q51.99 33.42 50.08 32.23Q48.18 31.04 47.09 28.94Q46.01 26.84 46.01 24.21L46.01 24.21Q46.01 21.52 47.11 19.44Q48.21 17.35 50.15 16.15Q52.10 14.94 54.51 14.94L54.51 14.94Q56.40 14.94 57.84 15.64Q59.27 16.34 60.15 17.63L60.15 17.63L60.15 7.80L64.87 7.80L64.87 33L60.67 33L60.15 30.59L60.15 30.59Q59.62 31.32 58.83 31.98Q58.05 32.65 56.96 33.03Q55.88 33.42 54.41 33.42ZM55.53 29.29L55.53 29.29Q56.93 29.29 57.99 28.64Q59.06 27.99 59.66 26.84Q60.25 25.68 60.25 24.18L60.25 24.18Q60.25 22.67 59.66 21.52Q59.06 20.36 57.99 19.72Q56.93 19.07 55.53 19.07L55.53 19.07Q54.20 19.07 53.11 19.72Q52.03 20.36 51.41 21.52Q50.80 22.67 50.80 24.14L50.80 24.14Q50.80 25.68 51.41 26.84Q52.03 27.99 53.09 28.64Q54.16 29.29 55.53 29.29ZM76.18 33.42L76.18 33.42Q73.52 33.42 71.45 32.23Q69.39 31.04 68.23 28.98Q67.08 26.91 67.08 24.25L67.08 24.25Q67.08 21.52 68.23 19.44Q69.39 17.35 71.45 16.15Q73.52 14.94 76.18 14.94L76.18 14.94Q79.57 14.94 81.88 16.72Q84.19 18.51 84.82 21.63L84.82 21.63L79.81 21.63Q79.50 20.40 78.50 19.70Q77.51 19 76.14 19L76.14 19Q74.92 19 73.95 19.61Q72.99 20.23 72.45 21.40Q71.91 22.57 71.91 24.18L71.91 24.18Q71.91 25.41 72.22 26.37Q72.53 27.33 73.09 28.01Q73.66 28.70 74.44 29.04Q75.23 29.39 76.14 29.39L76.14 29.39Q77.05 29.39 77.80 29.08Q78.56 28.77 79.08 28.19Q79.61 27.61 79.81 26.77L79.81 26.77L84.82 26.77Q84.19 29.81 81.86 31.62Q79.53 33.42 76.18 33.42ZM92.98 33.42L92.98 33.42Q90.77 33.42 89.34 32.70Q87.90 31.98 87.22 30.78Q86.53 29.57 86.53 28.10L86.53 28.10Q86.53 26.49 87.36 25.27Q88.18 24.04 89.84 23.34Q91.51 22.64 94.03 22.64L94.03 22.64L98.40 22.64Q98.40 21.34 98.05 20.49Q97.70 19.63 96.97 19.21Q96.23 18.79 95.01 18.79L95.01 18.79Q93.68 18.79 92.75 19.37Q91.82 19.95 91.61 21.13L91.61 21.13L87.03 21.13Q87.20 19.24 88.27 17.86Q89.34 16.48 91.10 15.71Q92.87 14.94 95.04 14.94L95.04 14.94Q97.53 14.94 99.34 15.78Q101.17 16.62 102.15 18.20Q103.13 19.77 103.13 22.08L103.13 22.08L103.13 33L99.14 33L98.61 30.30L98.61 30.30Q98.23 31.00 97.70 31.57Q97.18 32.13 96.48 32.55Q95.78 32.97 94.90 33.19Q94.03 33.42 92.98 33.42ZM94.09 29.78L94.09 29.78Q95.01 29.78 95.72 29.45Q96.44 29.11 96.97 28.54Q97.49 27.96 97.79 27.21Q98.09 26.45 98.19 25.58L98.19 25.58L98.19 25.54L94.59 25.54Q93.50 25.54 92.82 25.81Q92.14 26.07 91.82 26.56Q91.51 27.05 91.51 27.68L91.51 27.68Q91.51 28.38 91.82 28.84Q92.14 29.29 92.73 29.54Q93.33 29.78 94.09 29.78ZM112.89 33.42L112.89 33.42Q110.48 33.42 108.69 32.65Q106.91 31.88 105.89 30.52Q104.88 29.15 104.73 27.43L104.73 27.43L109.43 27.43Q109.60 28.10 110.02 28.64Q110.44 29.18 111.14 29.50Q111.84 29.81 112.82 29.81L112.82 29.81Q113.77 29.81 114.36 29.55Q114.96 29.29 115.25 28.84Q115.55 28.38 115.55 27.89L115.55 27.89Q115.55 27.16 115.13 26.75Q114.71 26.35 113.91 26.11Q113.10 25.86 111.95 25.61L111.95 25.61Q110.69 25.37 109.48 25.00Q108.27 24.63 107.33 24.07Q106.38 23.52 105.82 22.64Q105.26 21.77 105.26 20.47L105.26 20.47Q105.26 18.89 106.10 17.65Q106.94 16.41 108.55 15.67Q110.16 14.94 112.44 14.94L112.44 14.94Q115.62 14.94 117.48 16.38Q119.33 17.81 119.68 20.33L119.68 20.33L115.24 20.33Q115.03 19.52 114.31 19.05Q113.59 18.58 112.40 18.58L112.40 18.58Q111.14 18.58 110.48 19.03Q109.81 19.49 109.81 20.23L109.81 20.23Q109.81 20.71 110.25 21.10Q110.69 21.48 111.49 21.75Q112.30 22.01 113.45 22.25L113.45 22.25Q115.48 22.67 117.02 23.22Q118.56 23.76 119.44 24.76Q120.31 25.75 120.31 27.64L120.31 27.64Q120.31 29.32 119.40 30.64Q118.49 31.95 116.83 32.69Q115.17 33.42 112.89 33.42ZM133.05 33L129.87 33Q128.01 33 126.63 32.42Q125.25 31.84 124.47 30.50Q123.70 29.15 123.70 26.80L123.70 26.80L123.70 19.31L120.69 19.31L120.69 15.36L123.70 15.36L124.23 10.56L128.43 10.56L128.43 15.36L133.09 15.36L133.09 19.31L128.43 19.31L128.43 26.88Q128.43 28.06 128.96 28.52Q129.48 28.98 130.74 28.98L130.74 28.98L133.05 28.98L133.05 33ZM152.69 33.42L152.69 33.42Q149.01 33.42 146.37 31.83Q143.72 30.23 142.31 27.38Q140.89 24.53 140.89 20.78L140.89 20.78Q140.89 17.04 142.31 14.17Q143.72 11.30 146.37 9.69Q149.01 8.08 152.69 8.08L152.69 8.08Q157.13 8.08 159.97 10.28Q162.80 12.49 163.50 16.51L163.50 16.51L158.36 16.51Q157.90 14.55 156.45 13.45Q155.00 12.35 152.65 12.35L152.65 12.35Q150.48 12.35 148.92 13.38Q147.37 14.41 146.53 16.29Q145.69 18.16 145.69 20.78L145.69 20.78Q145.69 23.38 146.53 25.27Q147.37 27.16 148.92 28.17Q150.48 29.18 152.65 29.18L152.65 29.18Q155.00 29.18 156.43 28.15Q157.87 27.12 158.32 25.27L158.32 25.27L163.50 25.27Q162.80 29.08 159.97 31.25Q157.13 33.42 152.69 33.42ZM170.29 33L165.57 33L165.57 7.80L170.29 7.80L170.29 33ZM177.89 33L173.16 33L173.16 15.36L177.89 15.36L177.89 33ZM175.54 12.94L175.54 12.94Q174.28 12.94 173.46 12.19Q172.64 11.44 172.64 10.28L172.64 10.28Q172.64 9.13 173.46 8.38Q174.28 7.62 175.54 7.62L175.54 7.62Q176.84 7.62 177.66 8.38Q178.48 9.13 178.48 10.28L178.48 10.28Q178.48 11.44 177.66 12.19Q176.84 12.94 175.54 12.94ZM185.52 40.70L180.79 40.70L180.79 15.36L184.99 15.36L185.52 17.81L185.52 17.81Q186.08 17.04 186.85 16.39Q187.62 15.74 188.68 15.34Q189.75 14.94 191.19 14.94L191.19 14.94Q193.67 14.94 195.56 16.16Q197.45 17.39 198.55 19.47Q199.66 21.55 199.66 24.21L199.66 24.21Q199.66 26.88 198.54 28.96Q197.42 31.04 195.53 32.23Q193.64 33.42 191.22 33.42L191.22 33.42Q189.26 33.42 187.84 32.70Q186.43 31.98 185.52 30.73L185.52 30.73L185.52 40.70ZM190.10 29.29L190.10 29.29Q191.50 29.29 192.57 28.66Q193.64 28.03 194.23 26.88Q194.83 25.72 194.83 24.21L194.83 24.21Q194.83 22.71 194.23 21.54Q193.64 20.36 192.57 19.72Q191.50 19.07 190.10 19.07L190.10 19.07Q188.74 19.07 187.67 19.72Q186.60 20.36 185.99 21.52Q185.38 22.67 185.38 24.18L185.38 24.18Q185.38 25.68 185.99 26.86Q186.60 28.03 187.67 28.66Q188.74 29.29 190.10 29.29ZM206.59 40.70L201.86 40.70L201.86 15.36L206.06 15.36L206.59 17.81L206.59 17.81Q207.15 17.04 207.92 16.39Q208.69 15.74 209.75 15.34Q210.82 14.94 212.26 14.94L212.26 14.94Q214.74 14.94 216.63 16.16Q218.52 17.39 219.62 19.47Q220.73 21.55 220.73 24.21L220.73 24.21Q220.73 26.88 219.61 28.96Q218.49 31.04 216.60 32.23Q214.71 33.42 212.29 33.42L212.29 33.42Q210.33 33.42 208.91 32.70Q207.50 31.98 206.59 30.73L206.59 30.73L206.59 40.70ZM211.17 29.29L211.17 29.29Q212.57 29.29 213.64 28.66Q214.71 28.03 215.30 26.88Q215.90 25.72 215.90 24.21L215.90 24.21Q215.90 22.71 215.30 21.54Q214.71 20.36 213.64 19.72Q212.57 19.07 211.17 19.07L211.17 19.07Q209.81 19.07 208.74 19.72Q207.67 20.36 207.06 21.52Q206.45 22.67 206.45 24.18L206.45 24.18Q206.45 25.68 207.06 26.86Q207.67 28.03 208.74 28.66Q209.81 29.29 211.17 29.29ZM231.40 33.42L231.40 33.42Q228.74 33.42 226.69 32.28Q224.65 31.14 223.51 29.10Q222.37 27.05 222.37 24.35L222.37 24.35Q222.37 21.59 223.51 19.47Q224.65 17.35 226.68 16.15Q228.71 14.94 231.40 14.94L231.40 14.94Q234.03 14.94 235.99 16.09Q237.95 17.25 239.03 19.21Q240.12 21.17 240.12 23.66L240.12 23.66Q240.12 24.00 240.12 24.44Q240.12 24.88 240.05 25.34L240.05 25.34L225.73 25.34L225.73 22.46L235.36 22.46Q235.25 20.75 234.15 19.77Q233.05 18.79 231.40 18.79L231.40 18.79Q230.21 18.79 229.20 19.33Q228.18 19.88 227.60 20.99Q227.03 22.11 227.03 23.83L227.03 23.83L227.03 24.84Q227.03 26.28 227.57 27.35Q228.11 28.41 229.09 28.99Q230.07 29.57 231.37 29.57L231.37 29.57Q232.66 29.57 233.52 29.01Q234.38 28.45 234.80 27.57L234.80 27.57L239.63 27.57Q239.14 29.22 237.98 30.55Q236.83 31.88 235.15 32.65Q233.47 33.42 231.40 33.42ZM246.87 33L242.15 33L242.15 15.36L246.35 15.36L246.80 18.61L246.80 18.61Q247.43 17.46 248.39 16.65Q249.36 15.85 250.60 15.39Q251.84 14.94 253.35 14.94L253.35 14.94L253.35 19.95L251.74 19.95Q250.69 19.95 249.79 20.19Q248.90 20.43 248.24 20.98Q247.57 21.52 247.22 22.46Q246.87 23.41 246.87 24.84L246.87 24.84L246.87 33Z"/></g>
        
      </svg>
    